<?xml version="1.0" standalone="yes"?>
<svg xmlns="http://www.w3.org/2000/svg" width="186" height="186">
<path style="fill:#aaa69d; stroke:none;" d="M105.667 42.3333C105.222 42.7778 106.278 42.7222 106.333 42.6667C106.778 42.2222 105.722 42.2778 105.667 42.3333z"/>
<path style="fill:#726e6c; stroke:none;" d="M107 42C108.248 42.6848 108.548 42.7488 110 43C108.752 42.3152 108.452 42.2512 107 42z"/>
<path style="fill:#3c373a; stroke:none;" d="M110 42C111.248 42.6848 111.548 42.7488 113 43C111.752 42.3152 111.452 42.2512 110 42z"/>
<path style="fill:#201b21; stroke:none;" d="M113 42C105.208 44.304 97.6374 44.2755 90 47.8904C69.587 57.5523 59.7071 77.3691 58 99L71 99C73.0561 83.7434 87.9492 68.6886 104 77.4174C108.145 79.6718 111.323 83.2029 114 87C115.661 83.0414 115 78.2604 115 74C115 64.3009 116.792 51.0357 113 42z"/>
<path style="fill:#3c373a; stroke:none;" d="M114 42L114 53C115.431 49.59 115.431 45.41 114 42z"/>
<path style="fill:#726e6c; stroke:none;" d="M101.667 43.3333C101.222 43.7778 102.278 43.7222 102.333 43.6667C102.778 43.2222 101.722 43.2778 101.667 43.3333z"/>
<path style="fill:#c5c1b6; stroke:none;" d="M97 44L98 45L97 44z"/>
<path style="fill:#807d78; stroke:none;" d="M98 44L99 45L98 44z"/>
<path style="fill:#c5c1b6; stroke:none;" d="M94 45L95 46L94 45z"/>
<path style="fill:#807d78; stroke:none;" d="M95 45L96 46L95 45z"/>
<path style="fill:#9b9891; stroke:none;" d="M92 46L93 47L92 46z"/>
<path style="fill:#575353; stroke:none;" d="M93 46L94 47L93 46z"/>
<path style="fill:#8e8a85; stroke:none;" d="M90 47L91 48L90 47M88 48L89 49L88 48z"/>
<path style="fill:#a9a69d; stroke:none;" d="M86 49L87 50L86 49z"/>
<path style="fill:#575353; stroke:none;" d="M85 50L86 51L85 50z"/>
<path style="fill:#8e8a85; stroke:none;" d="M83 51L84 52L83 51z"/>
<path style="fill:#575353; stroke:none;" d="M82 52L83 53L82 52z"/>
<path style="fill:#a9a59d; stroke:none;" d="M80 53L81 54L80 53z"/>
<path style="fill:#807c78; stroke:none;" d="M79 54L80 55L79 54z"/>
<path style="fill:#575353; stroke:none;" d="M78 55L79 56L78 55z"/>
<path style="fill:#656160; stroke:none;" d="M71 62L72 63L71 62z"/>
<path style="fill:#8e8a84; stroke:none;" d="M70 63L71 64L70 63z"/>
<path style="fill:#b7b4a9; stroke:none;" d="M69 64L70 65L69 64z"/>
<path style="fill:#575353; stroke:none;" d="M68 66L69 67L68 66z"/>
<path style="fill:#9b9791; stroke:none;" d="M67 67L68 68L67 67z"/>
<path style="fill:#736f6c; stroke:none;" d="M66 69L67 70L66 69z"/>
<path style="fill:#a9a69d; stroke:none;" d="M65 70L66 71L65 70M64 72L65 73L64 72M63 74L64 75L63 74z"/>
<path style="fill:#807c78; stroke:none;" d="M89.6667 75.3333C89.2222 75.7777 90.2778 75.7222 90.3333 75.6667C90.7778 75.2222 89.7222 75.2778 89.6667 75.3333z"/>
<path style="fill:#c5c1b6; stroke:none;" d="M91 75C93.0521 75.8743 94.7472 75.9528 97 76C94.9479 75.1258 93.2528 75.0472 91 75z"/>
<path style="fill:#807c78; stroke:none;" d="M97 75C98.2484 75.6848 98.5484 75.7488 100 76C98.7516 75.3152 98.4516 75.2512 97 75z"/>
<path style="fill:#a9a69d; stroke:none;" d="M62 76L63 77L62 76z"/>
<path style="fill:#807c78; stroke:none;" d="M86 76L87 77L86 76z"/>
<path style="fill:#c5c1b6; stroke:none;" d="M87 76L88 77L87 76z"/>
<path style="fill:#fcf9e8; stroke:none;" d="M88 76.5293C78.2654 78.7796 68.892 90.7931 73.0093 101C76.9548 110.781 88.3566 114.549 98 112.319C108.159 109.971 119.051 96.66 113.427 86.0039C108.661 76.9717 97.3636 74.3648 88 76.5293z"/>
<path style="fill:#a9a59d; stroke:none;" d="M101 76L102 77L101 76z"/>
<path style="fill:#656060; stroke:none;" d="M102 76L103 77L102 76z"/>
<path style="fill:#e0ddcf; stroke:none;" d="M115 76L115 88C116.512 84.3957 116.512 79.6043 115 76z"/>
<path style="fill:#575353; stroke:none;" d="M62 77L63 78L62 77z"/>
<path style="fill:#8e8a84; stroke:none;" d="M84 77L85 78L84 77z"/>
<path style="fill:#736e6c; stroke:none;" d="M104 77L105 78L104 77z"/>
<path style="fill:#807d78; stroke:none;" d="M82 78L83 79L82 78z"/>
<path style="fill:#736e6c; stroke:none;" d="M106 78L107 79L106 78z"/>
<path style="fill:#8e8a84; stroke:none;" d="M61 79L62 80L61 79z"/>
<path style="fill:#9b9790; stroke:none;" d="M107 79L108 80L107 79z"/>
<path style="fill:#575353; stroke:none;" d="M79 80L80 81L79 80z"/>
<path style="fill:#736f6c; stroke:none;" d="M78 81L79 82L78 81z"/>
<path style="fill:#807c78; stroke:none;" d="M60 82L61 83L60 82z"/>
<path style="fill:#736f6c; stroke:none;" d="M77 82L78 83L77 82z"/>
<path style="fill:#b7b3aa; stroke:none;" d="M112 84L113 85L112 84z"/>
<path style="fill:#b7b4aa; stroke:none;" d="M59 85L60 86L59 85z"/>
<path style="fill:#a9a59d; stroke:none;" d="M75 85L76 86L75 85z"/>
<path style="fill:#807c78; stroke:none;" d="M113 85L114 86L113 85z"/>
<path style="fill:#575353; stroke:none;" d="M59.3333 86.6667C59.2778 86.7222 59.2222 87.7778 59.6667 87.3333C59.7223 87.2777 59.7778 86.2222 59.3333 86.6667M74 86L75 87L74 86z"/>
<path style="fill:#8e8a84; stroke:none;" d="M114 87L115 88L114 87z"/>
<path style="fill:#65605f; stroke:none;" d="M73 88L74 89L73 88z"/>
<path style="fill:#aaa69d; stroke:none;" d="M115 88C118.959 89.6611 123.737 89 128 89C124.041 87.3389 119.263 88 115 88z"/>
<path style="fill:#b7b4aa; stroke:none;" d="M58.3333 89.6667C58.2778 89.7222 58.2222 90.7778 58.6667 90.3333C58.7223 90.2777 58.7778 89.2222 58.3333 89.6667z"/>
<path style="fill:#c5c1b6; stroke:none;" d="M73 89L74 90L73 89z"/>
<path style="fill:#3c373a; stroke:none;" d="M115 89L115 92C115.696 90.4463 115.696 90.5537 115 89z"/>
<path style="fill:#201b21; stroke:none;" d="M116 89C115.04 93.9457 114.173 98.7916 111.2 102.996C100.655 117.91 83.2359 115.322 73 102C71.1248 106.469 72 112.191 72 117L72 146C79.9395 144.11 87.3343 143.972 95 140.561C116.725 130.893 125.207 111.099 128 89L116 89z"/>
<path style="fill:#736e6b; stroke:none;" d="M58.3333 91.6667C58.2778 91.7222 58.2222 92.7778 58.6667 92.3333C58.7222 92.2778 58.7778 91.2222 58.3333 91.6667M72 91L73 92L72 91z"/>
<path style="fill:#b7b3aa; stroke:none;" d="M72 92L73 93L72 92z"/>
<path style="fill:#575353; stroke:none;" d="M127 92L127 96C127.71 94.2405 127.71 93.7595 127 92M58.3333 93.6667C58.2778 93.7222 58.2222 94.7778 58.6667 94.3333C58.7223 94.2777 58.7778 93.2222 58.3333 93.6667z"/>
<path style="fill:#9b9791; stroke:none;" d="M114.333 94.6667C114.278 94.7222 114.222 95.7778 114.667 95.3333C114.722 95.2778 114.778 94.2222 114.333 94.6667z"/>
<path style="fill:#726e6b; stroke:none;" d="M71 95L71 100C71.8299 97.9695 71.8299 97.0305 71 95z"/>
<path style="fill:#65615f; stroke:none;" d="M114 96L115 97L114 96z"/>
<path style="fill:#b7b3aa; stroke:none;" d="M127 96L127 99C127.696 97.4463 127.696 97.5537 127 96z"/>
<path style="fill:#b7b4aa; stroke:none;" d="M113 98L114 99L113 98z"/>
<path style="fill:#aaa69d; stroke:none;" d="M58 99C61.9587 100.661 66.7366 100 71 100C67.0413 98.3389 62.2634 99 58 99z"/>
<path style="fill:#65615f; stroke:none;" d="M113 99L114 100L113 99z"/>
<path style="fill:#3c373a; stroke:none;" d="M71 100L71 146C72.552 142.301 72 137.983 72 134L72 112C72.0015 108.044 72.9895 103.441 71 100z"/>
<path style="fill:#c5c1b6; stroke:none;" d="M72 100L73 101L72 100z"/>
<path style="fill:#807d78; stroke:none;" d="M126.333 100.667C126.278 100.722 126.222 101.778 126.667 101.333C126.722 101.278 126.778 100.222 126.333 100.667z"/>
<path style="fill:#736f6c; stroke:none;" d="M112 101L113 102L112 101z"/>
<path style="fill:#c5c1b6; stroke:none;" d="M73 102L74 103L73 102z"/>
<path style="fill:#b7b3aa; stroke:none;" d="M111 102L112 103L111 102z"/>
<path style="fill:#e1ddcf; stroke:none;" d="M126.333 102.667C126.278 102.722 126.222 103.778 126.667 103.333C126.722 103.278 126.778 102.222 126.333 102.667z"/>
<path style="fill:#817d79; stroke:none;" d="M74 104L75 105L74 104z"/>
<path style="fill:#736f6c; stroke:none;" d="M110 104L111 105L110 104z"/>
<path style="fill:#9c9891; stroke:none;" d="M75 105L76 106L75 105z"/>
<path style="fill:#8e8a84; stroke:none;" d="M109 105L110 106L109 105z"/>
<path style="fill:#807d78; stroke:none;" d="M125 105L126 106L125 105z"/>
<path style="fill:#a9a59d; stroke:none;" d="M76 106L77 107L76 106z"/>
<path style="fill:#8e8a84; stroke:none;" d="M108 106L109 107L108 106z"/>
<path style="fill:#9c9891; stroke:none;" d="M77 107L78 108L77 107z"/>
<path style="fill:#8e8a84; stroke:none;" d="M107 107L108 108L107 107z"/>
<path style="fill:#8e8a85; stroke:none;" d="M78 108L79 109L78 108z"/>
<path style="fill:#807c78; stroke:none;" d="M106 108L107 109L106 108z"/>
<path style="fill:#8e8a85; stroke:none;" d="M124 108L125 109L124 108z"/>
<path style="fill:#817d79; stroke:none;" d="M81 110L82 111L81 110z"/>
<path style="fill:#807c78; stroke:none;" d="M103 110L104 111L103 110z"/>
<path style="fill:#575353; stroke:none;" d="M123 110L124 111L123 110z"/>
<path style="fill:#736f6c; stroke:none;" d="M83 111L84 112L83 111z"/>
<path style="fill:#8e8a85; stroke:none;" d="M101 111L102 112L101 111z"/>
<path style="fill:#a9a59d; stroke:none;" d="M123 111L124 112L123 111z"/>
<path style="fill:#575353; stroke:none;" d="M85 112L86 113L85 112z"/>
<path style="fill:#8e8a84; stroke:none;" d="M86 112L87 113L86 112z"/>
<path style="fill:#c5c1b6; stroke:none;" d="M97 112L98 113L97 112z"/>
<path style="fill:#8e8a85; stroke:none;" d="M98 112L99 113L98 112z"/>
<path style="fill:#575353; stroke:none;" d="M99 112L100 113L99 112z"/>
<path style="fill:#65615f; stroke:none;" d="M89 113C91.0521 113.874 92.7472 113.953 95 114C92.9479 113.126 91.2528 113.047 89 113z"/>
<path style="fill:#a9a59d; stroke:none;" d="M122 113L123 114L122 113M121 115L122 116L121 115M120 117L121 118L120 117z"/>
<path style="fill:#736e6b; stroke:none;" d="M119 118L120 119L119 118z"/>
<path style="fill:#9c9891; stroke:none;" d="M118 120L119 121L118 120z"/>
<path style="fill:#575353; stroke:none;" d="M117 121L118 122L117 121z"/>
<path style="fill:#b7b3a9; stroke:none;" d="M116 123L117 124L116 123z"/>
<path style="fill:#8e8a85; stroke:none;" d="M115 124L116 125L115 124z"/>
<path style="fill:#65605f; stroke:none;" d="M114 125L115 126L114 125z"/>
<path style="fill:#575353; stroke:none;" d="M107 132L108 133L107 132z"/>
<path style="fill:#807d78; stroke:none;" d="M106 133L107 134L106 133z"/>
<path style="fill:#a9a59d; stroke:none;" d="M105 134L106 135L105 134z"/>
<path style="fill:#575353; stroke:none;" d="M103 135L104 136L103 135z"/>
<path style="fill:#8e8a84; stroke:none;" d="M102 136L103 137L102 136z"/>
<path style="fill:#575353; stroke:none;" d="M100 137L101 138L100 137z"/>
<path style="fill:#a9a59d; stroke:none;" d="M99 138L100 139L99 138z"/>
<path style="fill:#8e8a84; stroke:none;" d="M97 139L98 140L97 139M95 140L96 141L95 140z"/>
<path style="fill:#575353; stroke:none;" d="M92 141L93 142L92 141z"/>
<path style="fill:#9b9791; stroke:none;" d="M93 141L94 142L93 141z"/>
<path style="fill:#807c78; stroke:none;" d="M90 142L91 143L90 142z"/>
<path style="fill:#c5c1b6; stroke:none;" d="M91 142L92 143L91 142z"/>
<path style="fill:#807c78; stroke:none;" d="M87 143L88 144L87 143z"/>
<path style="fill:#c5c1b6; stroke:none;" d="M88 143L89 144L88 143z"/>
<path style="fill:#9b9791; stroke:none;" d="M83.6667 144.333C83.2222 144.778 84.2778 144.722 84.3333 144.667C84.7778 144.222 83.7222 144.278 83.6667 144.333z"/>
<path style="fill:#3c373a; stroke:none;" d="M73 145C74.2484 145.685 74.5484 145.749 76 146C74.7516 145.315 74.4516 145.251 73 145z"/>
<path style="fill:#726e6c; stroke:none;" d="M76 145C77.2484 145.685 77.5484 145.749 79 146C77.7517 145.315 77.4516 145.251 76 145z"/>
<path style="fill:#d3cfc3; stroke:none;" d="M79.6667 145.333C79.2222 145.778 80.2778 145.722 80.3333 145.667C80.7778 145.222 79.7222 145.278 79.6667 145.333z"/>
</svg>